<svg xmlns="http://www.w3.org/2000/svg" width="2.86cm" height="4.89cm" viewBox="0 0 81 138.58">
  <title>ico-compassion-white</title>
  <g>
    <path d="M33,64.25a2,2,0,0,1-2-2V25c0-3.93-2.42-7-5.5-7S20,21.07,20,25V62.25a2,2,0,0,1-4,0V25c0-6.17,4.17-11,9.5-11S35,18.83,35,25V62.25A2,2,0,0,1,33,64.25Z" transform="translate(0 0)" fill="#fff"/>
    <path d="M49,55.25a2,2,0,0,1-2-2V11c0-3.79-2.75-7-6-7s-6,3.21-6,7V53.25a2,2,0,0,1-4,0V11C31,5,35.58,0,41,0S51,5,51,11V53.25A2,2,0,0,1,49,55.25Z" transform="translate(0 0)" fill="#fff"/>
    <path d="M64,69.25a2,2,0,0,1-2-2V25c0-3.93-2.42-7-5.5-7S51,21.07,51,25V61.25a2,2,0,0,1-4,0V25c0-6.17,4.17-11,9.5-11S66,18.83,66,25V67.25A2,2,0,0,1,64,69.25Z" transform="translate(0 0)" fill="#fff"/>
    <path d="M40.27,138.58C21.83,138.58,0,117.15,0,99V39c0-6,4.58-11,10-11s10,5,10,11V62.25a2,2,0,0,1-4,0V39c0-3.79-2.75-7-6-7s-6,3.21-6,7V99c0,16,20,35.55,36.27,35.55S77,114.65,77,99V60c0-3.93-2.42-7-5.5-7S66,56.07,66,60V75.25a2,2,0,0,1-4,0V60c0-6.17,4.17-11,9.5-11S81,53.83,81,60V99C81,117.15,58.92,138.58,40.27,138.58Z" transform="translate(0 0)" fill="#fff"/>
    <path d="M41.05,124.05a2,2,0,0,1-1.22-3.58l16.36-12.61,2.24-2.17A9.67,9.67,0,0,0,44.71,92.07l-2.35,2.28a2,2,0,0,1-2.78-2.88h0l2.33-2.25a13.66,13.66,0,1,1,19.32,19.32L58.72,111,42.27,123.63A2,2,0,0,1,41.05,124.05Z" transform="translate(0 0)" fill="#fff"/>
    <path d="M41.05,124.05a2,2,0,0,1-1.24-.43L22,109.57l-1-1A13.65,13.65,0,0,1,40.29,89.25h0l2.17,2.17a2,2,0,1,1-2.83,2.83l-2.17-2.18a9.64,9.64,0,1,0-13.64,13.64l1,1,17.51,13.82a2,2,0,0,1-1.24,3.57Z" transform="translate(0 0)" fill="#fff"/>
  </g>
</svg>
