<svg xmlns="http://www.w3.org/2000/svg" width="2.47cm" height="3.35cm" viewBox="0 0 70 95">
  <title>ico-article</title>
  <g>
    <path d="M56,95H15A15.39,15.39,0,0,1,0,80V22.9a2.49,2.49,0,0,1,.78-1.81L22.28.72A2.46,2.46,0,0,1,24,0H56A13.69,13.69,0,0,1,70,13.37V80C70,88.3,63.72,95,56,95ZM5,24V80A10.4,10.4,0,0,0,15,90H56c5,0,9-4.49,9-10V14a8.7,8.7,0,0,0-8.39-9H25Z" transform="translate(0 0)" fill="#23282f"/>
    <path d="M2.5,25A2.35,2.35,0,0,1,.18,23.65,2.36,2.36,0,0,1,.78,21L22.28.67A2.52,2.52,0,0,1,26.5,2.58L26,22.84a2.34,2.34,0,0,1-2.42,2.25h-.07L2.51,25ZM21.35,8.48,8.81,20.37l12.25-.08Z" transform="translate(0 0)" fill="#8f7ad6"/>
    <path d="M58,16H31a2.5,2.5,0,0,1,0-5H58a2.5,2.5,0,0,1,0,5Z" transform="translate(0 0)" fill="#23282f"/>
    <path d="M58,26H31a2.5,2.5,0,0,1,0-5H58a2.5,2.5,0,0,1,0,5Z" transform="translate(0 0)" fill="#23282f"/>
    <path d="M34,66H11a2.5,2.5,0,0,1,0-5H34a2.5,2.5,0,0,1,0,5Z" transform="translate(0 0)" fill="#23282f"/>
    <path d="M34,76H11a2.5,2.5,0,0,1,0-5H34a2.5,2.5,0,0,1,0,5Z" transform="translate(0 0)" fill="#23282f"/>
    <path d="M34,86H11a2.5,2.5,0,0,1,0-5H34a2.5,2.5,0,0,1,0,5Z" transform="translate(0 0)" fill="#23282f"/>
    <path d="M58,36H11a2.5,2.5,0,0,1,0-5H58a2.5,2.5,0,0,1,0,5Z" transform="translate(0 0)" fill="#23282f"/>
    <path d="M58,46H11a2.5,2.5,0,0,1,0-5H58a2.5,2.5,0,0,1,0,5Z" transform="translate(0 0)" fill="#23282f"/>
    <path d="M58,56H11a2.5,2.5,0,0,1,0-5H58a2.5,2.5,0,0,1,0,5Z" transform="translate(0 0)" fill="#23282f"/>
    <path d="M57.5,86h-15A2.5,2.5,0,0,1,40,83.5v-20A2.5,2.5,0,0,1,42.5,61h15A2.5,2.5,0,0,1,60,63.5v20A2.5,2.5,0,0,1,57.5,86ZM45,81H55V66H45Z" transform="translate(0 0)" fill="#00bcff"/>
  </g>
</svg>
