<svg xmlns="http://www.w3.org/2000/svg" width="2.42cm" height="3.29cm" viewBox="0 0 68.47 93.36">
  <title>ico-mental</title>
  <g>
    <path d="M31.29,93.36c-10.53,0-17.53-7.52-17.83-7.85a1.57,1.57,0,0,1-.5-1.15V59C4.81,53.23,0,43.37,0,32.17,0,14.43,13.83,0,30.82,0,47.08,0,60.64,13.21,61.7,30.09a3.93,3.93,0,0,0,.06.48,2.62,2.62,0,0,0,.07.48v.29l6.37,15a2,2,0,0,1-.73,2.73,1.91,1.91,0,0,1-1,.27H59v13a2,2,0,0,1-2,2H44l6.84,19.85A1.7,1.7,0,0,1,50.42,86c-5.07,5.45-13.11,7.32-19,7.32ZM17,83.54a22,22,0,0,0,14.33,5.82h.15c4.68,0,11-1.32,15.22-5.21L39.31,62.92a1.9,1.9,0,0,1,.27-1.77,1.94,1.94,0,0,1,1.63-.79H55v-13a2,2,0,0,1,2-2h6.52L58.09,32.67a2.11,2.11,0,0,1-.14-.49l-.12-.84c0-.22-.1-.64-.13-1C56.78,15.57,45,4,30.82,4,16,4,4,16.63,4,32.17,4,42.71,8.75,51.85,16.71,56.63A2,2,0,0,1,17.56,59a2.13,2.13,0,0,1-.6.85Z" transform="translate(0 0)" fill="#23282f"/>
    <path d="M26.7,43.43,12.54,31.88l-.75-.77a10.93,10.93,0,0,1,0-15.09,10.27,10.27,0,0,1,14.51-.28l.28.28.16.17.19-.19a10.28,10.28,0,0,1,14.54-.25c.08.08.17.16.25.25a11,11,0,0,1,0,15.09L39.87,33ZM15.33,29l11.4,9.29,10.56-8.4,1.6-1.6a6.89,6.89,0,0,0,0-9.5A6.3,6.3,0,0,0,30,18.61l-.18.18L28.11,20.5a2,2,0,0,1-2.83,0h0a2.09,2.09,0,0,1-.35-.49L23.71,18.8a6.26,6.26,0,0,0-8.85-.15l-.15.15a6.88,6.88,0,0,0,0,9.52Z" transform="translate(0 0)" fill="#8f7ad6"/>
    <rect x="24.96" y="22.36" width="3" height="11" fill="#00bcff"/>
    <rect x="20.96" y="26.36" width="11" height="3" fill="#00bcff"/>
  </g>
</svg>
