<svg xmlns="http://www.w3.org/2000/svg" width="2.61cm" height="2.77cm" viewBox="0 0 73.97 78.55">
  <title>ico-home</title>
  <g>
    <path d="M46.26,77.83a2,2,0,0,1-2-2v-15a4.69,4.69,0,0,0-4.9-4.45H34.57a4.67,4.67,0,0,0-4.89,4.45v14.3a2,2,0,0,1-4,0V60.78a8.7,8.7,0,0,1,8.89-8.45h4.79a8.7,8.7,0,0,1,8.9,8.45v15a2,2,0,0,1-1.95,2Z" transform="translate(0 0)" fill="#8e77d8"/>
    <path d="M55.2,21.82a2,2,0,0,1-2-2V9.17c0-.31-.56-.77-1.41-.77s-1.41.46-1.41.77V13.3a2,2,0,1,1-4,0V9.17c0-2.63,2.43-4.77,5.41-4.77S57.2,6.54,57.2,9.17V19.82A2,2,0,0,1,55.2,21.82Z" transform="translate(0 0)" fill="#00baff"/>
    <path d="M50.63,78.55H23.31a11.93,11.93,0,0,1-11.84-12V40.79H2a2,2,0,0,1-2-2,2,2,0,0,1,.55-1.38L35.52.6a2.05,2.05,0,0,1,2.9,0h0l35,36.81A2,2,0,0,1,72,40.79H62.46V66.55A11.93,11.93,0,0,1,50.63,78.55ZM13.47,36.79a2,2,0,0,1,2,2V66.55a7.93,7.93,0,0,0,7.84,8H50.63a7.92,7.92,0,0,0,7.83-8V38.79a2,2,0,0,1,2-2h6.82L37,4.88,6.66,36.79Z" transform="translate(0 0)" fill="#1d1d1b"/>
  </g>
</svg>
