<svg xmlns="http://www.w3.org/2000/svg" width="5.29cm" height="2.16cm" viewBox="0 0 150.02 61.31">
  <title>ico-help</title>
  <g>
    <path d="M92.61,61.31A41.66,41.66,0,0,1,78.3,58.6,159.84,159.84,0,0,1,48.14,44a1.69,1.69,0,0,1-.41-.35H32.86c-6.17,0-11-4.17-11-9.5s4.83-9.5,11-9.5h42l72.84-12A2,2,0,0,1,150,14.72l-1.75,36.5a2,2,0,0,1-3.56,1.16c-.18-.22-5.29-5.88-20-.75-3.46,1.21-6.61,2.51-9.66,3.77C107.54,58.51,100.75,61.31,92.61,61.31ZM55.35,43.66A160,160,0,0,0,79.66,54.84c14,5.06,22.75,1.46,33.79-3.1,3.1-1.28,6.31-2.6,9.87-3.84,10.85-3.78,17.51-2.28,21.09-.48L145.87,17,75.31,28.63a1.82,1.82,0,0,1-.33,0H32.86c-3.93,0-7,2.42-7,5.5s3.07,5.5,7,5.5H69a2,2,0,0,1,0,4Z" transform="translate(0 0)" fill="#23282f"/>
    <path d="M24.35,30.1a2,2,0,0,1-1.1-.33L5.36,18C.22,14.54-1.51,8.4,1.43,4S10.7-1.3,15.84,2.1L49,24a2,2,0,1,1-2.21,3.34L13.64,5.43c-3.28-2.16-7.17-1.84-8.87.73s-.47,6.28,2.8,8.45L25.45,26.44a2,2,0,0,1-1.1,3.66Z" transform="translate(0 0)" fill="#23282f"/>
    <path d="M64.84,27.66a2,2,0,0,1-1.1-.33L30.64,5.43c-3.28-2.16-7.17-1.84-8.87.73a4.56,4.56,0,0,0-.57,1.2,2,2,0,1,1-3.83-1.17A8.87,8.87,0,0,1,18.43,4C21.37-.49,27.7-1.3,32.84,2.1L66,24a2,2,0,0,1-1.11,3.67Z" transform="translate(0 0)" fill="#23282f"/>
    <path d="M78.7,26.58a2,2,0,0,1-1.1-.33L47.6,6.43c-3.27-2.16-7.17-1.84-8.87.73a4,4,0,0,0-.36.64,2,2,0,1,1-3.71-1.5,1,1,0,0,1,.07-.15A7.51,7.51,0,0,1,35.43,5C38.37.51,44.7-.3,49.84,3.1l30,19.81a2,2,0,0,1,.57,2.77h0A2,2,0,0,1,78.7,26.58Z" transform="translate(0 0)" fill="#23282f"/>
  </g>
</svg>
