<svg xmlns="http://www.w3.org/2000/svg" width="2.75cm" height="2.7cm" viewBox="0 0 78 76.52">
  <title>ico-profile</title>
  <g>
    <path d="M76,76.52a2,2,0,0,1-2-2v-10a9.14,9.14,0,0,0-9.12-9.12H13.12A9.13,9.13,0,0,0,4,64.54H4V73a2,2,0,0,1-4,0V64.55A13.14,13.14,0,0,1,13.12,51.43h51.8A13.13,13.13,0,0,1,78,64.55v10A2,2,0,0,1,76,76.52Z" transform="translate(0 0)" fill="#8e77d8"/>
    <path d="M38.81,45.78a22.89,22.89,0,1,1,22.88-22.9h0A22.92,22.92,0,0,1,38.81,45.78ZM38.81,4A18.89,18.89,0,1,0,57.69,22.9h0A18.92,18.92,0,0,0,38.81,4Z" transform="translate(0 0)" fill="#1d1d1b"/>
    <path d="M39,35.94a12.07,12.07,0,0,1-3.48-.52,2,2,0,0,1,1.15-3.84c3.25,1,6.42-.11,9.42-3.24A2,2,0,1,1,49,31.11h0C45.38,34.83,41.87,35.94,39,35.94Z" transform="translate(0 0)" fill="#00baff"/>
    <path d="M36.06,35.5a2.25,2.25,0,0,1-.58-.08A16.36,16.36,0,0,1,28.61,31a2,2,0,0,1,3-2.64,12.13,12.13,0,0,0,5,3.18A2,2,0,0,1,36,35.46Z" transform="translate(0 0)" fill="#00baff"/>
  </g>
</svg>
