<svg xmlns="http://www.w3.org/2000/svg" width="2.83cm" height="2.23cm" viewBox="0 0 80.19 63.23">
  <title>ico-relationship</title>
  <g>
    <path d="M39.89,45.84a17.81,17.81,0,0,1-5.13-.77,2,2,0,1,1,1.16-3.83c5.57,1.68,11-.15,16-5.43a2,2,0,1,1,2.89,2.77C49.48,44.17,44.24,45.84,39.89,45.84Z" transform="translate(0.02 0.05)" fill="#8f7ad6"/>
    <path d="M35.34,45.15a2.25,2.25,0,0,1-.58-.08,24.34,24.34,0,0,1-10.29-6.56,2,2,0,1,1,3-2.63h0a20.46,20.46,0,0,0,8.44,5.36,2,2,0,0,1-.58,3.91Z" transform="translate(0.02 0.05)" fill="#00bcff"/>
    <path d="M39.48,63.18a2,2,0,0,1-1.23-.43L8.31,39.13,8.13,39,6.37,37.21A21.8,21.8,0,0,1,37.2,6.38l3.7,3.7a2,2,0,1,1-2.83,2.83h0l-3.7-3.7A17.8,17.8,0,0,0,9.2,34.38l1.68,1.68L40.72,59.61a2,2,0,0,1-1.24,3.57Z" transform="translate(0.02 0.05)" fill="#23282f"/>
    <path d="M40.42,63.18a2,2,0,0,1-1.91-1.4c-.21-.68-5.29-16.84-6.1-23.17C29.81,18.36,37.77,11.09,39,10.12l3.89-3.76a21.83,21.83,0,1,1,30.9,30.85h0l-4,3.85-.17.15-28,21.55A2,2,0,0,1,40.42,63.18ZM58.28,4A17.73,17.73,0,0,0,45.66,9.21l-4,3.86-.2.17A13.45,13.45,0,0,0,38,18.44c-1.46,3.5-2.94,9.76-1.67,19.66.57,4.48,3.6,14.79,5.1,19.74L67.09,38.11,71,34.36A17.81,17.81,0,0,0,58.28,4Z" transform="translate(0.02 0.05)" fill="#23282f"/>
    <path d="M60.2,30a2,2,0,0,1-2-2A3.11,3.11,0,0,0,52,28a2,2,0,0,1-4,0,7.11,7.11,0,1,1,14.2-.75q0,.38,0,.75A2,2,0,0,1,60.2,30Z" transform="translate(0.02 0.05)" fill="#8f7ad6"/>
    <path d="M28.84,30a2,2,0,0,1-2-2,3.11,3.11,0,0,0-6.21-.35,2,2,0,0,0,0,.35,2,2,0,0,1-4,0,7.11,7.11,0,1,1,14.21-.53,4.68,4.68,0,0,1,0,.53A2,2,0,0,1,28.84,30Z" transform="translate(0.02 0.05)" fill="#00bcff"/>
  </g>
</svg>
