<svg xmlns="http://www.w3.org/2000/svg" width="2.65cm" height="2.65cm" viewBox="0 0 75.04 75.01">
  <title>ico-search</title>
  <g>
    <path d="M44.08,30.66H44a2,2,0,0,1-1.91-2.09h0a15.78,15.78,0,0,0-1.34-7.24,16.16,16.16,0,0,0-8-8.13,2,2,0,0,1,1.68-3.63A20.07,20.07,0,0,1,46.12,28.71,2,2,0,0,1,44.08,30.66Z" transform="translate(0.01 0.01)" fill="#8e77d8"/>
    <path d="M66.15,75a6.91,6.91,0,0,1-4.94-2L49.66,61.51c-2.89-2.89-2.57-7.89.69-11.16a9,9,0,0,1,6.22-2.68,6.91,6.91,0,0,1,4.94,2L73.06,61.21c2.88,2.88,2.57,7.88-.7,11.15A8.89,8.89,0,0,1,66.15,75ZM56.57,51.67a4.91,4.91,0,0,0-3.39,1.51c-1.71,1.71-2,4.18-.69,5.5L64,70.23a3,3,0,0,0,2.11.81,4.86,4.86,0,0,0,3.38-1.51c1.71-1.7,2-4.17.7-5.49L58.68,52.49A3,3,0,0,0,56.57,51.67Z" transform="translate(0.01 0.01)" fill="#1d1d1b"/>
    <path d="M26.88,53.77A26.89,26.89,0,1,1,53.77,26.88,26.89,26.89,0,0,1,26.88,53.77ZM26.88,4A22.89,22.89,0,1,0,49.77,26.89h0A22.92,22.92,0,0,0,26.88,4Z" transform="translate(0.01 0.01)" fill="#1d1d1b"/>
    <path d="M51.77,53.77a2,2,0,0,1-1.42-.59l-3.81-3.81a2,2,0,0,1,2.83-2.83l3.81,3.81a2,2,0,0,1-1.41,3.42Z" transform="translate(0.01 0.01)" fill="#1d1d1b"/>
  </g>
</svg>
