<svg xmlns="http://www.w3.org/2000/svg" width="2.68cm" height="3.35cm" viewBox="0 0 76 95">
  <title>ico-diary</title>
  <g>
    <path d="M60.6,95H22.5A2.5,2.5,0,0,1,20,92.5l.56-90c0-1.38.56-2.5,1.94-2.5H60.6C69.38,0,76,6,76,14V80A15.22,15.22,0,0,1,60.6,95Zm-36-5h36A10.21,10.21,0,0,0,71,80V14c0-5.21-4.37-9-10.4-9H25.48Z" transform="translate(0 0)" fill="#23282f"/>
    <path d="M22.4,95C13.51,95,6,88.37,6,80.51v-66C6,6.64,13.59,0,22.57,0H23a2.5,2.5,0,0,1,2.5,2.5v0l-.6,90A2.5,2.5,0,0,1,22.4,95ZM20.48,5.17C15.23,6,11,10,11,14.5v66c0,4.44,3.88,8.29,8.92,9.26Z" transform="translate(0 0)" fill="#8f7ad6"/>
    <path d="M48,62.16a2.47,2.47,0,0,1-1.54-.54l-12-9.44L34.25,52l-.7-.7A10.42,10.42,0,0,1,48,36.3a10.43,10.43,0,0,1,14.5,15l-1.6,1.55-.22.19-11.17,8.6A2.43,2.43,0,0,1,48,62.16ZM37.68,48.35,48,56.49l9.53-7.34L59,47.72a5.42,5.42,0,1,0-7.72-7.62l-1.61,1.56a2.51,2.51,0,0,1-3.54-.06,3.1,3.1,0,0,1-.35-.46l-1-1a5.41,5.41,0,1,0-7.66,7.65Z" transform="translate(0 0)" fill="#00bcff"/>
    <path d="M14,26H3a3,3,0,0,1,0-6H14a3,3,0,0,1,0,6Z" transform="translate(0 0)" fill="#8f7ad6"/>
    <path d="M14,42H3a3,3,0,0,1,0-6H14a3,3,0,0,1,0,6Z" transform="translate(0 0)" fill="#8f7ad6"/>
    <path d="M14,58H3a3,3,0,0,1,0-6H14a3,3,0,0,1,0,6Z" transform="translate(0 0)" fill="#8f7ad6"/>
    <path d="M14,74H3a3,3,0,0,1,0-6H14a3,3,0,0,1,0,6Z" transform="translate(0 0)" fill="#8f7ad6"/>
  </g>
</svg>
