<svg xmlns="http://www.w3.org/2000/svg" width="2.17cm" height="2.68cm" viewBox="0 0 61.63 76.06">
  <title>ico-bell</title>
  <g>
    <path d="M31.17,76.08a9.77,9.77,0,0,1-9.76-9.76,2,2,0,0,1,4,0,5.76,5.76,0,0,0,11.51.48,3.84,3.84,0,0,0,0-.48,2,2,0,0,1,4,0A9.76,9.76,0,0,1,31.17,76.08Z" transform="translate(0 -0.02)" fill="currentColor" />
    <path d="M31.17,68h-.86C3.87,66.15.49,59.11.08,57.72a2,2,0,0,1,1.2-2.43s6.24-3.23,8.06-24.14C11.49,6.46,30.41,7.65,30.6,7.66H31c.19,0,19.12-1.19,21.26,23.49,1.82,20.91,8.07,24.14,8.14,24.17a1.92,1.92,0,0,1,1.12,2.4c-.41,1.39-3.79,8.43-30.22,10.27Zm-.65-4h.58c17.39-1.21,23.59-4.67,25.67-6.45-2.68-2.55-7-9.21-8.48-26-1.8-20.64-16.35-19.9-17-19.85a1.46,1.46,0,0,1-.51,0,1.51,1.51,0,0,1-.52,0c-.61,0-15.17-.8-17,19.85-1.4,16.78-5.74,23.45-8.41,26C6.92,59.32,13.13,62.78,30.52,64Z" transform="translate(0 -0.02)" fill="currentColor"/>
    <path d="M41.21,29.08a2,2,0,0,1-2-1.93c-.3-8.25-8.44-8.45-8.79-8.45a2,2,0,0,1,0-4h0c4.25.05,12.39,2.69,12.74,12.3a2,2,0,0,1-1.93,2.07h0Z" transform="translate(0 -0.02)" fill="currentColor"/>
    <path d="M38.05,12.79a1.93,1.93,0,0,1-.48,0,2,2,0,0,1-1.46-2.42A5.09,5.09,0,1,0,26.29,7.7a5,5,0,0,0-.18,1.44,4.79,4.79,0,0,0,.11,1A2,2,0,0,1,22.3,11a8.71,8.71,0,0,1-.19-1.84,9.09,9.09,0,1,1,18.18,0h0A8.78,8.78,0,0,1,40,11.27,2,2,0,0,1,38.05,12.79Z" transform="translate(0 -0.02)" fill="currentColor"/>
  </g>
</svg>
