<svg xmlns="http://www.w3.org/2000/svg" width="3.61cm" height="3.44cm" viewBox="0 0 102.37 97.55">
  <title>ico-star</title>
  <g>
    <path d="M20.79,97.55a2,2,0,0,1-2-2,2.31,2.31,0,0,1,0-.37L24.44,62.4.6,39.16a2,2,0,0,1,1.11-3.41L34.66,31,49.39,1.12A2,2,0,0,1,51.18,0h0A2,2,0,0,1,53,1.12L67.71,31l32.94,4.78a2,2,0,0,1,1.11,3.41L77.92,62.4l5.63,32.81a2,2,0,0,1-1.63,2.31,2.06,2.06,0,0,1-1.27-.2L51.18,81.83,21.72,97.32A2,2,0,0,1,20.79,97.55ZM6.3,39.13,28,60.27A2,2,0,0,1,28.56,62L23.44,91.89,50.25,77.8a2,2,0,0,1,1.86,0L78.92,91.89,73.8,62a2,2,0,0,1,.58-1.77l21.68-21.1-30-4.36a2,2,0,0,1-1.5-1.09L51.18,6.52,37.78,33.68a2,2,0,0,1-1.51,1.09Z" transform="translate(0 0)" fill="#23282f"/>
    <path d="M69.19,61.7a2,2,0,0,1-1.43-3.39L82.09,43.6l-19.72-3a2,2,0,0,1-1.5-1.13L50.33,17A2,2,0,1,1,54,15.3L64,36.8l22.51,3.44a2,2,0,0,1,1.13,3.34l-17,17.49A2,2,0,0,1,69.19,61.7Z" transform="translate(0 0)" fill="#00bcff"/>
    <path d="M73.21,86.39a1.93,1.93,0,0,1-1-.25l-21-11.65A2,2,0,0,1,53.11,71l17.47,9.66L67.22,60a2,2,0,0,1,3.94-.64l4,24.69a2,2,0,0,1-2,2.34Z" transform="translate(0 0)" fill="#8f7ad6"/>
  </g>
</svg>
