<svg xmlns="http://www.w3.org/2000/svg" width="2.8cm" height="3.01cm" viewBox="0 0 79.46 85.34">
  <title>ico-events</title>
  <g>
    <path d="M66,85.22H13.51A13.53,13.53,0,0,1,0,71.7V19.27A13.53,13.53,0,0,1,13.51,5.75H66A13.54,13.54,0,0,1,79.46,19.27V71.7A13.54,13.54,0,0,1,66,85.22ZM13.51,9.75A9.53,9.53,0,0,0,4,19.27V71.7a9.53,9.53,0,0,0,9.51,9.52H66a9.53,9.53,0,0,0,9.51-9.52V19.27A9.53,9.53,0,0,0,66,9.75Z" transform="translate(0 0.12)" fill="#1d1d1b"/>
    <path d="M77.46,31.22H2a2,2,0,0,1-2-2V19.27A13.53,13.53,0,0,1,13.51,5.75H66A13.54,13.54,0,0,1,79.46,19.27v9a2,2,0,0,1-.06.48,2,2,0,0,1,.06.48A2,2,0,0,1,77.46,31.22ZM4,27.22H75.46V19.27A9.52,9.52,0,0,0,66,9.75H13.51A9.53,9.53,0,0,0,4,19.27Z" transform="translate(0 0.12)" fill="#1d1d1b"/>
    <rect x="24.05" y="38.65" width="6.12" height="6.12" fill="#1d1d1b"/>
    <path d="M30.17,46.65H24.05a2,2,0,0,1-2-2V38.53a2,2,0,0,1,2-2h6.12a2,2,0,0,1,2,2v6.12a2,2,0,0,1-2,2Zm-4.12-4h2.12V40.53H26.05Z" transform="translate(0 0.12)" fill="#1d1d1b"/>
    <rect x="36.97" y="38.65" width="6.12" height="6.12" fill="#8e77d8"/>
    <path d="M43.09,46.65H37a2,2,0,0,1-2-2V38.53a2,2,0,0,1,2-2h6.12a2,2,0,0,1,2,2v6.12a2,2,0,0,1-2,2Zm-4.12-4h2.12V40.53H39Z" transform="translate(0 0.12)" fill="#8e77d8"/>
    <rect x="49.89" y="38.65" width="6.12" height="6.12" fill="#1d1d1b"/>
    <path d="M56,46.65H49.89a2,2,0,0,1-2-2V38.53a2,2,0,0,1,2-2H56a2,2,0,0,1,2,2v6.12a2,2,0,0,1-2,2Zm-4.12-4H54V40.53H51.89Z" transform="translate(0 0.12)" fill="#1d1d1b"/>
    <rect x="62.81" y="38.65" width="6.12" height="6.12" fill="#1d1d1b"/>
    <path d="M68.94,46.65H62.81a2,2,0,0,1-2-2V38.53a2,2,0,0,1,2-2h6.13a2,2,0,0,1,2,2v6.12a2,2,0,0,1-2,2Zm-4.13-4h2.13V40.53H64.81Z" transform="translate(0 0.12)" fill="#1d1d1b"/>
    <rect x="24.05" y="53.36" width="6.12" height="6.12" fill="#1d1d1b"/>
    <path d="M30.17,61.36H24.05a2,2,0,0,1-2-2V53.24a2,2,0,0,1,2-2h6.12a2,2,0,0,1,2,2v6.12A2,2,0,0,1,30.17,61.36Zm-4.12-4h2.12V55.24H26.05Z" transform="translate(0 0.12)" fill="#1d1d1b"/>
    <rect x="10.94" y="53.36" width="6.12" height="6.12" fill="#1d1d1b"/>
    <path d="M17.06,61.36H10.94a2,2,0,0,1-2-2V53.24a2,2,0,0,1,2-2h6.12a2,2,0,0,1,2,2v6.12A2,2,0,0,1,17.06,61.36Zm-4.12-4h2.12V55.24H12.94Z" transform="translate(0 0.12)" fill="#1d1d1b"/>
    <rect x="36.97" y="53.36" width="6.12" height="6.12" fill="#1d1d1b"/>
    <path d="M43.09,61.36H37a2,2,0,0,1-2-2V53.24a2,2,0,0,1,2-2h6.12a2,2,0,0,1,2,2v6.12a2,2,0,0,1-2,2Zm-4.12-4h2.12V55.24H39Z" transform="translate(0 0.12)" fill="#1d1d1b"/>
    <rect x="49.89" y="53.36" width="6.12" height="6.12" fill="#00baff"/>
    <path d="M56,61.36H49.89a2,2,0,0,1-2-2V53.24a2,2,0,0,1,2-2H56a2,2,0,0,1,2,2v6.12A2,2,0,0,1,56,61.36Zm-4.12-4H54V55.24H51.89Z" transform="translate(0 0.12)" fill="#00baff"/>
    <rect x="62.81" y="53.36" width="6.12" height="6.12" fill="#1d1d1b"/>
    <path d="M68.94,61.36H62.81a2,2,0,0,1-2-2V53.24a2,2,0,0,1,2-2h6.13a2,2,0,0,1,2,2v6.12A2,2,0,0,1,68.94,61.36Zm-4.13-4h2.13V55.24H64.81Z" transform="translate(0 0.12)" fill="#1d1d1b"/>
    <rect x="24.05" y="67.11" width="6.12" height="6.12" fill="#1d1d1b"/>
    <path d="M30.17,75.11H24.05a2,2,0,0,1-2-2V67a2,2,0,0,1,2-2h6.12a2,2,0,0,1,2,2v6.12A2,2,0,0,1,30.17,75.11Zm-4.12-4h2.12V69H26.05Z" transform="translate(0 0.12)" fill="#1d1d1b"/>
    <rect x="10.94" y="67.11" width="6.12" height="6.12" fill="#1d1d1b"/>
    <path d="M17.06,75.11H10.94a2,2,0,0,1-2-2V67a2,2,0,0,1,2-2h6.12a2,2,0,0,1,2,2v6.12A2,2,0,0,1,17.06,75.11Zm-4.12-4h2.12V69H12.94Z" transform="translate(0 0.12)" fill="#1d1d1b"/>
    <rect x="36.97" y="67.11" width="6.12" height="6.12" fill="#1d1d1b"/>
    <path d="M43.09,75.11H37a2,2,0,0,1-2-2V67a2,2,0,0,1,2-2h6.12a2,2,0,0,1,2,2v6.12a2,2,0,0,1-2,2Zm-4.12-4h2.12V69H39Z" transform="translate(0 0.12)" fill="#1d1d1b"/>
    <path d="M19.93,13.43V2.88c0-1.59.91-2.88,2.5-2.88s2.5,1.29,2.5,2.88V13.43c0,1.59-.91,2.88-2.5,2.88A2.59,2.59,0,0,1,19.93,13.43Z" transform="translate(0 0.12)" fill="#1d1d1b"/>
    <path d="M54.93,13.43V2.88a3,3,0,0,1,6,0V13.43a3,3,0,0,1-6,0Z" transform="translate(0 0.12)" fill="#1d1d1b"/>
  </g>
</svg>
