<svg xmlns="http://www.w3.org/2000/svg" width="2.72cm" height="2.68cm" viewBox="0 0 77.21 76.09">
  <title>ico-challenges</title>
  <g>
    <polygon points="40.27 48.87 37.24 42.18 29.66 25.52 19.89 42.82 16 49.71 22.69 47.48 25.93 52.88 30.98 46.76 34.76 51.98 40.27 48.87" fill="#00bcff"/>
    <path d="M25.93,53.88h-.07a1,1,0,0,1-.79-.48l-2.83-4.72-5.92,2a1,1,0,0,1-1.09-.31,1,1,0,0,1-.1-1.13L28.79,25a1,1,0,0,1,1.36-.38,1,1,0,0,1,.42.45L41.18,48.45a1,1,0,0,1-.41,1.29l-5.51,3.11A1,1,0,0,1,34,52.57l-3-4.18-4.3,5.13A1,1,0,0,1,25.93,53.88Zm-3.24-7.4a1,1,0,0,1,.85.48l2.52,4.2,4.15-5a1,1,0,0,1,1.58.05l3.26,4.5,4-2.26L29.56,27.72,18.15,47.94l4.22-1.41A.86.86,0,0,1,22.69,46.48Z" transform="translate(0 0)" fill="#23282f"/>
    <polyline points="66.07 54.55 57.96 36.7 48.15 54.07 55.37 52.7 58.14 56.07 60.9 52.95 66.07 55.23" fill="#00bcff"/>
    <path d="M58.14,57.09h0a1,1,0,0,1-.76-.38L55,53.8l-6.65,1.26a1,1,0,0,1-1.17-.79,1,1,0,0,1,.11-.69l9.82-17.37a1,1,0,0,1,1.36-.38,1,1,0,0,1,.42.46L67,54.13a1,1,0,0,1,0,.76,1,1,0,0,1,0,.74,1,1,0,0,1-1.32.51h0l-4.51-2-2.28,2.58A1,1,0,0,1,58.14,57.09Zm-2.77-5.38a1,1,0,0,1,.77.36l2,2.46,2-2.25A1,1,0,0,1,61.3,52l3.16,1.39L57.86,38.9,50.07,52.69l5.12-1Z" transform="translate(0 0)" fill="#23282f"/>
    <path d="M74.74,76.09H51.53a2.5,2.5,0,0,1-2.3-1.51L42.8,59.72a2.51,2.51,0,0,1,.1-2.19L55.76,34a2.51,2.51,0,0,1,4.49.2L77,72.59a2.5,2.5,0,0,1-2.29,3.5Zm-21.57-5H70.92L57.71,40.91l-9.83,18Z" transform="translate(0 0)" fill="#23282f"/>
    <path d="M51.53,76.09H2.5A2.5,2.5,0,0,1,0,73.59a2.54,2.54,0,0,1,.32-1.23l27.16-48.1A2.53,2.53,0,0,1,29.77,23a2.49,2.49,0,0,1,2.17,1.46L53.8,72.56a2.5,2.5,0,0,1-1.25,3.31A2.56,2.56,0,0,1,51.53,76.09Zm-44.75-5H47.64L29.42,31Z" transform="translate(0 0)" fill="#23282f"/>
    <line x1="29.74" y1="23.09" x2="29.74" y2="1.09" fill="none"/>
    <path d="M29.74,24.09a1,1,0,0,1-1-1v-22a1,1,0,0,1,2,0v22A1,1,0,0,1,29.74,24.09Z" transform="translate(0 0)" fill="#23282f"/>
    <polygon points="29.74 1 39.66 4.76 29.74 9.44 29.74 1" fill="#8f7ad6"/>
    <path d="M29.74,10.44a1,1,0,0,1-1-1V1A1,1,0,0,1,30.09.06L40,3.82a1,1,0,0,1,.59,1.29,1,1,0,0,1-.51.55l-9.92,4.69A1,1,0,0,1,29.74,10.44Zm1-8V7.87l6.36-3Z" transform="translate(0 0)" fill="#23282f"/>
  </g>
</svg>
