<svg xmlns="http://www.w3.org/2000/svg" width="2.62cm" height="4.58cm" viewBox="0 0 74.17 129.83">
  <title>ico-agree-white</title>
  <g>
    <path d="M37.44,129.82A37.57,37.57,0,0,1,0,92.2v-.31l.13-.83V89.21C0,85-.16,79.68,2.07,76a8.69,8.69,0,0,1,6.79-4.24,7.91,7.91,0,0,1-1.16-.39c-3.94-1.6-6.07-5.58-5.45-10.12a2.07,2.07,0,0,1,.2-.64c.11-.21,10.06-19.3,28-17.56A164.19,164.19,0,0,0,14.78,30a2,2,0,0,1-.58-.69A9.34,9.34,0,0,1,16,17.85a9.08,9.08,0,0,1,11.29-.55A64.73,64.73,0,0,1,41,26.2a102.32,102.32,0,0,0-9.74-12.87,1.72,1.72,0,0,1-.4-.66A9.33,9.33,0,0,1,34.12,1.54a9.14,9.14,0,0,1,11.41,1l.17.17a77.13,77.13,0,0,1,7.86,10.88v-.87c0-6.14,4.17-11,9.5-11s9.5,4.81,9.5,11V51.84c.19,2.07,2.54,28.36,1.2,42.39a2.11,2.11,0,0,1-.22.74C71.77,114.88,56.35,129.82,37.44,129.82ZM4,92.35a33.57,33.57,0,0,0,33.44,33.47c17,0,30.81-13.65,32.16-31.75a2,2,0,0,1,.23-.79c1.21-14.1-1.24-40.89-1.26-41.16V12.77c0-3.89-2.42-6.95-5.5-6.95s-5.5,3.06-5.5,7V21.9a2.11,2.11,0,0,1,.12.86l-.13,1.62V42.25a2,2,0,0,1-4,0V22.58c-3.37-8.47-10-16.16-10.77-17.06a5.12,5.12,0,0,0-6.42-.68A5.3,5.3,0,0,0,34.5,11c2,2.19,12.71,14.63,14.61,23.55h0a8.37,8.37,0,0,1,.18,1,2,2,0,0,1-3.95.61l-.06-.34a64.79,64.79,0,0,0-19.77-15,3.07,3.07,0,0,1-.31-.17c-2.71-1.82-5.16-1.14-6.56.11A5.27,5.27,0,0,0,17.56,27c3,2.23,17,12.87,19.4,17.73a2.14,2.14,0,0,1,.21,1v.35a2,2,0,0,1-2.59,1.82c-17-5.27-27,11.58-28.38,14.18a5.12,5.12,0,0,0,3,5.54,5.19,5.19,0,0,0,6.18-1.91l.41-1a2,2,0,0,1,.17-.32,15.81,15.81,0,1,1-1,15.44,2,2,0,0,1-.38-.61A5.64,5.64,0,0,0,9.9,75.69,4.63,4.63,0,0,0,5.46,78C3.84,80.67,4,85.3,4.08,89v2.09a1.71,1.71,0,0,1,0,.32Zm14.11-15a2.41,2.41,0,0,1,.33.5,11.86,11.86,0,1,0,1-11.33l-.44,1a1.82,1.82,0,0,1-.24.43,9.76,9.76,0,0,1-7,4,9.69,9.69,0,0,1,6.35,5.38Z" transform="translate(0 0.01)" fill="#fff"/>
    <path d="M38.53,120.75c-23.41,0-25.93-18.57-26-18.76a2,2,0,1,1,4-.49c.08.63,2.21,15.5,22,15.5.17,0,.33.25.5.25h0a1.8,1.8,0,0,1,2,1.61.41.41,0,0,1,0,.11,1.88,1.88,0,0,1-1.88,1.9H39C38.9,120.88,38.71,120.75,38.53,120.75Z" transform="translate(0 0.01)" fill="#fff"/>
    <path d="M49.46,85.92a2.06,2.06,0,0,1-1.24-.42,2,2,0,0,1-.34-2.81h0c.4-.52,9.36-12.55-5.12-26.68a2,2,0,1,1,2.65-3,.86.86,0,0,1,.14.13C62.68,69.86,51.15,85,51,85.16A2,2,0,0,1,49.46,85.92Z" transform="translate(0 0.01)" fill="#fff"/>
  </g>
</svg>
