<svg xmlns="http://www.w3.org/2000/svg" width="3.21cm" height="3.21cm" viewBox="0 0 91 91">
  <title>ico-positivity</title>
  <g>
    <path d="M45.62,71.54A26.35,26.35,0,1,1,72,45.19,26.35,26.35,0,0,1,45.62,71.54Zm0-48.69A22.35,22.35,0,1,0,68,45.19,22.35,22.35,0,0,0,45.62,22.85Z" transform="translate(0 0)" fill="#23282f"/>
    <path d="M43,17a2,2,0,0,1-2-2V2a2,2,0,0,1,4,0V15A2,2,0,0,1,43,17Z" transform="translate(0 0)" fill="#23282f"/>
    <path d="M43,91a2,2,0,0,1-2-2V76a2,2,0,0,1,4,0V89A2,2,0,0,1,43,91Z" transform="translate(0 0)" fill="#23282f"/>
    <path d="M15,50H2a2,2,0,0,1,0-4H15a2,2,0,0,1,0,4Z" transform="translate(0 0)" fill="#23282f"/>
    <path d="M89,50H76a2,2,0,0,1,0-4H89a2,2,0,0,1,0,4Z" transform="translate(0 0)" fill="#23282f"/>
    <path d="M52.37,60a2,2,0,0,1-1.31-3.51,14.61,14.61,0,0,0,4.28-15.61,2,2,0,1,1,3.8-1.27,18.65,18.65,0,0,1-5.46,19.9A2,2,0,0,1,52.37,60Z" transform="translate(0 0)" fill="#8f7ad6"/>
    <path d="M51.39,32.2a15.8,15.8,0,0,1,2.71,2.52" transform="translate(0 0)" fill="#8f7ad6"/>
    <path d="M54.1,36.72A2,2,0,0,1,52.58,36a14.59,14.59,0,0,0-2.38-2.2,2,2,0,0,1,2.38-3.21,18.7,18.7,0,0,1,3,2.83,2,2,0,0,1-.22,2.82h0A1.9,1.9,0,0,1,54.1,36.72Z" transform="translate(0 0)" fill="#00bcff"/>
    <path d="M30,21.2a2,2,0,0,1-1.74-1L21.74,8.85A2,2,0,0,1,25.12,6.7l.08.15L31.76,18.2A2,2,0,0,1,31,20.93h0A2,2,0,0,1,30,21.2Z" transform="translate(0 0)" fill="#23282f"/>
    <path d="M67.15,85.53a2,2,0,0,1-1.73-1L58.86,73.18a2,2,0,1,1,3.47-2l6.55,11.35a2,2,0,0,1-.73,2.73A2,2,0,0,1,67.15,85.53Z" transform="translate(0 0)" fill="#23282f"/>
    <path d="M71.63,32.11a2,2,0,0,1-1-3.72l11.28-6.67a2,2,0,0,1,2,3.44L72.65,31.84A2,2,0,0,1,71.63,32.11Z" transform="translate(0 0)" fill="#23282f"/>
    <path d="M7.71,69.94a2,2,0,0,1-1-3.72L18,59.55A2,2,0,0,1,20,63L8.73,69.66A2,2,0,0,1,7.71,69.94Z" transform="translate(0 0)" fill="#23282f"/>
    <path d="M61.35,21.65a2,2,0,0,1-1.05-.3,2,2,0,0,1-.65-2.75L66.52,7.44a2,2,0,1,1,3.41,2.1L63.05,20.7A2,2,0,0,1,61.35,21.65Z" transform="translate(0 0)" fill="#23282f"/>
    <path d="M22.39,84.89a2,2,0,0,1-2-2,2,2,0,0,1,.27-1l6.88-11.16a2,2,0,0,1,3.4,2.1L24.1,83.94A2,2,0,0,1,22.39,84.89Z" transform="translate(0 0)" fill="#23282f"/>
    <path d="M19.22,31.73a2,2,0,0,1-1-.3L7,24.59a2,2,0,1,1,1.9-3.52l.18.11L20.27,28a2,2,0,0,1-1.05,3.71Z" transform="translate(0 0)" fill="#23282f"/>
    <path d="M82.58,70.49a2.07,2.07,0,0,1-1-.29L70.35,63.36A2,2,0,0,1,72.44,60l11.18,6.84a2,2,0,0,1-1,3.7Z" transform="translate(0 0)" fill="#23282f"/>
  </g>
</svg>
