<svg xmlns="http://www.w3.org/2000/svg" width="4.29cm" height="3.96cm" viewBox="0 0 121.47 112.21">
  <title>ico-respect</title>
  <g>
    <path d="M104.51,62.92a2,2,0,0,1-1.4-3.44l6.18-6a29.06,29.06,0,0,0-41.19-41l-6.23,6a2,2,0,0,1-2.78-2.87l6.21-6a33.06,33.06,0,0,1,46.8,46.7l-6.2,6A2,2,0,0,1,104.51,62.92Z" transform="translate(0.02 0)" fill="#8f7ad6"/>
    <path d="M104.74,62.92a2,2,0,0,1-1.41-.59L70.4,29.4a2,2,0,0,1,2.82-2.83L106.16,59.5a2,2,0,0,1-1.42,3.42Z" transform="translate(0.02 0)" fill="#23282f"/>
    <path d="M13.82,59.68a2,2,0,0,1-1.42-.59L9.65,56.34A33,33,0,0,1,56.32,9.67l5.79,5.79a2,2,0,0,1-2.69,3,.93.93,0,0,1-.14-.14l-5.79-5.79a29,29,0,0,0-41,41l2.75,2.75a2,2,0,0,1-1.41,3.42Z" transform="translate(0.02 0)" fill="#23282f"/>
    <path d="M92.05,90.27a11.64,11.64,0,0,1-8.15-3.49L54.2,57.08A2,2,0,0,1,57,54.25L86.73,84c2.73,2.73,6.78,3.13,9,.88s1.85-6.29-.88-9l-29.7-29.7A2,2,0,1,1,68,43.29L97.7,73c4.29,4.29,4.68,10.88.88,14.68A9.14,9.14,0,0,1,92.05,90.27Z" transform="translate(0.02 0)" fill="#23282f"/>
    <path d="M81.09,101.25H80.3a11.73,11.73,0,0,1-7.37-3.47l-6.29-6.29a2,2,0,0,1,2.83-2.83L75.76,95a7.77,7.77,0,0,0,4.84,2.32A5,5,0,0,0,86.21,93a4.86,4.86,0,0,0,0-1.32,7.74,7.74,0,0,0-2.31-4.84L54.2,57.08A2,2,0,0,1,57,54.25L86.73,84a11.73,11.73,0,0,1,3.47,7.38,9.15,9.15,0,0,1-2.59,7.3A9.06,9.06,0,0,1,81.09,101.25Z" transform="translate(0.02 0)" fill="#23282f"/>
    <path d="M103,79.31a11.61,11.61,0,0,1-8.15-3.5l-29.7-29.7A2,2,0,1,1,68,43.29L97.7,73c2.73,2.73,6.77,3.13,9,.88s1.85-6.29-.88-9L76.14,35.15A2,2,0,1,1,79,32.32L108.67,62c4.29,4.28,4.68,10.87.88,14.67A9.16,9.16,0,0,1,103,79.31Z" transform="translate(0.02 0)" fill="#23282f"/>
    <path d="M70.11,112.21A11.68,11.68,0,0,1,62,108.72l-5-5a2,2,0,0,1,2.82-2.83l5,5a7.77,7.77,0,0,0,4.84,2.32,5.29,5.29,0,0,0,4.18-1.44c2.25-2.24,1.85-6.29-.88-9L55.65,80.46a2,2,0,0,1,2.82-2.82L75.76,94.92c4.29,4.29,4.68,10.88.88,14.68A9.1,9.1,0,0,1,70.11,112.21Z" transform="translate(0.02 0)" fill="#23282f"/>
    <path d="M38.67,97.81h0A9.27,9.27,0,0,1,32,95.17c-3.79-3.78-3.43-10.54.79-14.76l8.83-8.83a11.53,11.53,0,0,1,8.1-3.43,9.35,9.35,0,0,1,6.66,2.64c3.78,3.79,3.42,10.55-.8,14.76l-8.82,8.83A11.61,11.61,0,0,1,38.67,97.81ZM49.74,72.15a7.55,7.55,0,0,0-5.28,2.26l-8.82,8.83c-2.68,2.68-3,6.85-.8,9.11a5.38,5.38,0,0,0,3.83,1.46A7.48,7.48,0,0,0,44,91.55l8.83-8.82c2.68-2.69,3-6.86.79-9.11A5.36,5.36,0,0,0,49.74,72.15Z" transform="translate(0.02 0)" fill="#00bcff"/>
    <path d="M50.37,109.33h0a10.33,10.33,0,0,1-10.22-9.71,8.82,8.82,0,0,1,2.51-6.78l7-7A8.79,8.79,0,0,1,56,83.29a10.25,10.25,0,0,1,7.21,3c3.79,3.78,4,10,.5,13.47l-7,7A8.81,8.81,0,0,1,50.37,109.33Zm5.58-22a4.81,4.81,0,0,0-3.43,1.35l-7,7a4.85,4.85,0,0,0-1.34,3.74A6.34,6.34,0,0,0,46,103.48a6.24,6.24,0,0,0,4.39,1.85A4.81,4.81,0,0,0,53.8,104l7-7c2-2,1.76-5.56-.5-7.81a6.24,6.24,0,0,0-4.3-1.9Z" transform="translate(0.02 0)" fill="#00bcff"/>
    <path d="M17,75.92h0a10.29,10.29,0,0,1-7.22-3C6,69.11,5.71,63,9.21,59.45l7-7A8.72,8.72,0,0,1,22.43,50a10.29,10.29,0,0,1,7.22,3c3.79,3.78,4,9.94.52,13.44l-7,7A8.7,8.7,0,0,1,17,75.92Zm5.48-22A4.8,4.8,0,0,0,19,55.27l-7,7c-2,2-1.73,5.54.52,7.79A6.28,6.28,0,0,0,17,71.92h0a4.76,4.76,0,0,0,3.39-1.33l7-7c2-2,1.73-5.53-.53-7.79a6.28,6.28,0,0,0-4.42-1.86Z" transform="translate(0.02 0)" fill="#00bcff"/>
    <path d="M27.53,86.67h0A9.23,9.23,0,0,1,20.88,84c-3.79-3.78-3.43-10.54.79-14.76l8.83-8.83A11.59,11.59,0,0,1,38.6,57a9.35,9.35,0,0,1,6.66,2.64c3.78,3.79,3.42,10.55-.8,14.76l-8.82,8.83A11.62,11.62,0,0,1,27.53,86.67ZM38.6,61a7.55,7.55,0,0,0-5.28,2.26L24.5,72.1c-2.68,2.68-3.05,6.85-.8,9.11a5.38,5.38,0,0,0,3.83,1.46,7.5,7.5,0,0,0,5.28-2.26l8.83-8.83c2.68-2.68,3-6.85.79-9.1A5.35,5.35,0,0,0,38.6,61Z" transform="translate(0.02 0)" fill="#00bcff"/>
    <path d="M54.2,43.77a9.1,9.1,0,0,1-6.53-2.61c-3.81-3.8-3.41-10.39.88-14.68l12.77-13a2,2,0,0,1,2.86,2.8l-12.79,13c-2.74,2.74-3.14,6.79-.89,9s6.29,1.85,9-.88L75.73,21.24a2,2,0,0,1,2.82,2.83L62.34,40.28A11.62,11.62,0,0,1,54.2,43.77Z" transform="translate(0.02 0)" fill="#8f7ad6"/>
  </g>
</svg>
