<svg xmlns="http://www.w3.org/2000/svg" xmlns:xlink="http://www.w3.org/1999/xlink" width="2.57cm" height="2.98cm" viewBox="0 0 72.92 84.35">
  <defs>
    <clipPath id="a" transform="translate(0 0)">
      <path d="M54.33,44.74a18,18,0,0,1-36,0Z" fill="none"/>
    </clipPath>
  </defs>
  <title>ico-happiness</title>
  <g>
    <path d="M36.46,72.92A36.46,36.46,0,1,1,72.92,36.46h0A36.52,36.52,0,0,1,36.46,72.92ZM36.46,4A32.46,32.46,0,1,0,68.92,36.46,32.46,32.46,0,0,0,36.46,4Z" transform="translate(0 0)" fill="#23282f"/>
    <g clip-path="url(#a)">
      <g>
        <ellipse cx="35.97" cy="69.6" rx="15.12" ry="14.75" fill="#8f7ad6"/>
        <rect x="13.34" y="41.74" width="53" height="9" fill="#00bcff"/>
      </g>
    </g>
    <path d="M36.33,65.74a20,20,0,0,1-20-20,2,2,0,0,1,2-2h36a2,2,0,0,1,2,2A20,20,0,0,1,36.33,65.74Zm-15.88-18a16,16,0,0,0,31.75,0Z" transform="translate(0 0)" fill="#23282f"/>
    <path d="M54.42,33.86a2,2,0,0,1-2-2,3.47,3.47,0,0,0-6.93-.37,2.29,2.29,0,0,0,0,.37,2,2,0,0,1-4,0,7.47,7.47,0,1,1,14.93-.55,5,5,0,0,1,0,.55A2,2,0,0,1,54.42,33.86Z" transform="translate(0 0)" fill="#23282f"/>
    <path d="M29.43,33.86a2,2,0,0,1-2-2,3.47,3.47,0,0,0-6.93-.37,2.29,2.29,0,0,0,0,.37,2,2,0,0,1-4,0,7.47,7.47,0,0,1,14.93-.55,5,5,0,0,1,0,.55A2,2,0,0,1,29.43,33.86Z" transform="translate(0 0)" fill="#23282f"/>
    <circle cx="16.06" cy="40.4" r="2.49" fill="#00bcff"/>
    <circle cx="56.68" cy="40.4" r="2.49" fill="#00bcff"/>
  </g>
</svg>
