<svg xmlns="http://www.w3.org/2000/svg" width="2.39cm" height="3.46cm" viewBox="0 0 67.67 98.05">
  <title>ico-lifestory</title>
  <g>
    <path d="M12.75,79.6H8.43a2,2,0,0,1,0-4h4.32a2,2,0,0,1,0,4Z" transform="translate(0 0)" fill="#1d1d1b"/>
    <path d="M2,79.6a2,2,0,0,1-2-2V13.28A13.14,13.14,0,0,1,13.13.16L56.57,0h0a2,2,0,0,1,2,2V68.79a2,2,0,0,1-4,0V4l-41.44.15A9.13,9.13,0,0,0,4,13.28H4V77.6A2,2,0,0,1,2,79.6Z" transform="translate(0 0)" fill="#1d1d1b"/>
    <path d="M38.08,79.6H25.8a2,2,0,1,1,0-4H38.08a2,2,0,0,1,0,4Z" transform="translate(0 0)" fill="#1d1d1b"/>
    <path d="M12.75,88.27H12.7C5.46,88.09,0,83.39,0,77.34a2,2,0,0,1,4,0c0,3.83,3.78,6.81,8.8,6.94a2,2,0,0,1-.05,4Z" transform="translate(0 0)" fill="#1d1d1b"/>
    <path d="M65.52,88.28H25.8a2,2,0,1,1,0-4H63.53l.14-73H56.56a2,2,0,0,1,0-4h9.11a2,2,0,0,1,2,2l-.16,77A2,2,0,0,1,65.52,88.28Z" transform="translate(0 0)" fill="#1d1d1b"/>
    <path d="M25.42,98.05a2,2,0,0,1-1.33-.5l-4.17-3.68L15.33,97.6a2,2,0,0,1-3.27-1.55V69.43a2,2,0,0,1,4,0V91.85l2.65-2.15a2,2,0,0,1,2.59,0l2.12,1.87V69.43a2,2,0,0,1,4,0V96.05a2,2,0,0,1-1.18,1.82A2,2,0,0,1,25.42,98.05Z" transform="translate(0 0)" fill="#8e77d8"/>
    <path d="M2,79.6a2,2,0,0,1-2-2c0-6.08,5.63-10.67,13.09-10.67l43.44-.14h0a2,2,0,0,1,0,4l-43.44.14C7.94,70.93,4,73.8,4,77.6A2,2,0,0,1,2,79.6Z" transform="translate(0 0)" fill="#1d1d1b"/>
    <path d="M40.45,27.73h-20a2,2,0,0,1-2-2V14.27a2,2,0,0,1,2-2h20a2,2,0,0,1,2,2V25.73A2,2,0,0,1,40.45,27.73Zm-18-4h16V16.27h-16Z" transform="translate(0 0)" fill="#00baff"/>
  </g>
</svg>
