<svg xmlns="http://www.w3.org/2000/svg" width="6.58cm" height="5.71cm" viewBox="0 0 186.66 161.84">
  <title>logo</title>
  <g>
    <path d="M93.26,26.34C58.93-25.54-20.16,22.61,11.54,80.05c14.58,26.43,55.79,60.42,81.72,76.84,25.93-16.42,67.14-50.41,81.72-76.84C206.68,22.61,127.59-25.54,93.26,26.34Z" transform="translate(0.07 -0.01)" fill="#fff" fill-rule="evenodd"/>
    <path d="M93.26,26.34C58.93-25.54-20.16,22.61,11.54,80.05c14.58,26.43,55.79,60.42,81.72,76.84,25.93-16.42,67.14-50.41,81.72-76.84C206.68,22.61,127.59-25.54,93.26,26.34Z" transform="translate(0.07 -0.01)" fill="none"/>
    <path d="M12,75c7.39,23.64,53,65.65,81.27,83.63,26.35-16.81,72.74-57.85,86.28-85.7C141.84,9.29,43,127.27,12,75Z" transform="translate(0.07 -0.01)" fill="#3fb6ea" fill-rule="evenodd"/>
    <path d="M93.26,161.86,91,160.43a363.41,363.41,0,0,1-45.68-35.09C33,114.21,16.47,97.67,7.86,82.08-10,49.72,5,21,26.38,8.05,45.73-3.67,74.13-4.64,93.26,19.22,112.39-4.63,140.79-3.67,160.13,8.05c21.44,13,36.38,41.67,18.53,74-8.61,15.59-25.13,32.13-37.48,43.26A363.41,363.41,0,0,1,95.5,160.43ZM54.4,8.49a46.19,46.19,0,0,0-23.67,6.73C4.88,30.86,4.57,58.74,15.21,78c13.88,25.17,53.14,57.66,78.05,73.88,24.91-16.22,64.17-48.71,78.05-73.88C182,58.74,181.63,30.86,155.79,15.22c-17.25-10.44-43.07-10.69-59,13.43l-3.5,5.29-3.5-5.29C80.2,14.19,67.08,8.49,54.4,8.49Z" transform="translate(0.07 -0.01)" fill="#3fb6ea"/>
    <circle cx="33" cy="38.29" r="4.43" fill="#3fb6ea"/>
    <path d="M32.93,38.34" transform="translate(0.07 -0.01)" fill="#3fb6ea"/>
    <path d="M33,58.93a6.21,6.21,0,1,1,4.52,7.53A6.2,6.2,0,0,1,33,58.93Z" transform="translate(0.07 -0.01)" fill="#3fb6ea"/>
    <path d="M39,60.44" transform="translate(0.07 -0.01)" fill="#3fb6ea"/>
    <path d="M22.06,61.46a3.11,3.11,0,1,1,2.26,3.77h0A3.12,3.12,0,0,1,22.06,61.46Z" transform="translate(0.07 -0.01)" fill="#3fb6ea"/>
    <path d="M25.07,62.21" transform="translate(0.07 -0.01)" fill="#3fb6ea"/>
    <path d="M48.63,71.53a3.47,3.47,0,1,1,2.53,4.21A3.46,3.46,0,0,1,48.63,71.53Z" transform="translate(0.07 -0.01)" fill="#3fb6ea"/>
    <path d="M52,72.37" transform="translate(0.07 -0.01)" fill="#3fb6ea"/>
    <path d="M44.39,47.06a3.1,3.1,0,1,1,2.26,3.76A3.11,3.11,0,0,1,44.39,47.06Z" transform="translate(0.07 -0.01)" fill="#00a5d5"/>
    <path d="M47.4,47.81" transform="translate(0.07 -0.01)" fill="#00a5d5"/>
  </g>
</svg>
